<svg xmlns="http://www.w3.org/2000/svg" viewBox="0, 0, 428.47, 148.45" font-family="SauceCodePro Nerd Font, Source Code Pro, Courier" font-size="14"><g fill="#D3D3D3"><rect x="0" y="0" width="428.47" height="148.45" fill="#000000"/><text x="0" y="14.55">:::::::::::::::::::::::::::::::::::::::::::::::::::</text><text x="0" y="33.55" fill="#9932CC">1</text><text x="16.8" y="33.55" fill="#DAA520">(initial)</text><text x="100.82" y="33.55" fill="#4169E1">{</text><text x="109.22" y="33.55" fill="#4169E1">.</text><text x="117.62" y="33.55" fill="#32CD32">.</text><text x="126.02" y="33.55" fill="#4169E1">.</text><text x="134.42" y="33.55" fill="#4169E1">}</text><text x="0" y="52.55" fill="#9932CC">5</text><text x="16.8" y="52.55" fill="#DAA520">FSREQWRAP</text><text x="117.62" y="52.55" fill="#32CD32">*</text><text x="126.02" y="52.55" fill="#A9A9A9">-</text><text x="134.42" y="52.55" fill="#A9A9A9">-</text><text x="142.82" y="52.55" fill="#A9A9A9">-</text><text x="151.22" y="52.55" fill="#4169E1">{</text><text x="159.63" y="52.55" fill="#4169E1">.</text><text x="168.03" y="52.55" fill="#32CD32">.</text><text x="176.43" y="52.55" fill="#4169E1">.</text><text x="184.83" y="52.55" fill="#4169E1">}</text><text x="193.23" y="52.55" fill="#A9A9A9">-</text><text x="201.63" y="52.55" fill="#B22222">*</text><text x="0" y="71.55" fill="#9932CC">6</text><text x="16.8" y="71.55" fill="#DAA520">FSREQWRAP</text><text x="168.03" y="71.55" fill="#32CD32">*</text><text x="176.43" y="71.55" fill="#A9A9A9">-</text><text x="184.83" y="71.55" fill="#A9A9A9">-</text><text x="193.23" y="71.55" fill="#A9A9A9">-</text><text x="201.63" y="71.55" fill="#A9A9A9">-</text><text x="210.03" y="71.55" fill="#A9A9A9">-</text><text x="218.44" y="71.55" fill="#4169E1">{</text><text x="226.84" y="71.55" fill="#4169E1">.</text><text x="235.24" y="71.55" fill="#32CD32">.</text><text x="243.64" y="71.55" fill="#4169E1">.</text><text x="252.04" y="71.55" fill="#4169E1">}</text><text x="260.44" y="71.55" fill="#A9A9A9">-</text><text x="268.84" y="71.55" fill="#B22222">*</text><text x="0" y="90.55" fill="#9932CC">7</text><text x="16.8" y="90.55" fill="#DAA520">FSREQWRAP</text><text x="235.24" y="90.55" fill="#32CD32">*</text><text x="243.64" y="90.55" fill="#A9A9A9">-</text><text x="252.04" y="90.55" fill="#A9A9A9">-</text><text x="260.44" y="90.55" fill="#A9A9A9">-</text><text x="268.84" y="90.55" fill="#A9A9A9">-</text><text x="277.25" y="90.55" fill="#A9A9A9">-</text><text x="285.65" y="90.55" fill="#4169E1">{</text><text x="294.05" y="90.55" fill="#4169E1">.</text><text x="302.45" y="90.55" fill="#32CD32">.</text><text x="310.85" y="90.55" fill="#4169E1">.</text><text x="319.25" y="90.55" fill="#4169E1">}</text><text x="327.65" y="90.55" fill="#A9A9A9">-</text><text x="336.05" y="90.55" fill="#B22222">*</text><text x="0" y="109.55" fill="#9932CC">8</text><text x="16.8" y="109.55" fill="#DAA520">FSREQWRAP</text><text x="302.45" y="109.55" fill="#32CD32">*</text><text x="310.85" y="109.55" fill="#A9A9A9">-</text><text x="319.25" y="109.55" fill="#A9A9A9">-</text><text x="327.65" y="109.55" fill="#A9A9A9">-</text><text x="336.05" y="109.55" fill="#A9A9A9">-</text><text x="344.46" y="109.55" fill="#A9A9A9">-</text><text x="352.86" y="109.55" fill="#4169E1">{</text><text x="361.26" y="109.55" fill="#4169E1">.</text><text x="369.66" y="109.55" fill="#008B8B">.</text><text x="378.06" y="109.55" fill="#4169E1">.</text><text x="386.46" y="109.55" fill="#4169E1">}</text><text x="394.86" y="109.55" fill="#A9A9A9">-</text><text x="403.27" y="109.55" fill="#B22222">*</text><text x="0" y="128.55" fill="#9932CC">9</text><text x="16.8" y="128.55" fill="#008B8B">cnysa(hi)</text><text x="369.66" y="128.55" fill="#008B8B">*</text><text x="0" y="147.55">:::::::::::::::::::::::::::::::::::::::::::::::::::</text></g></svg>
